<svg width="270" height="41" viewBox="0 0 270 41" fill="none" xmlns="http://www.w3.org/2000/svg">
<path d="M51.4297 3.44968V36.7199H45.1559V3.44968H51.4297Z" fill="#AB8E54"/>
<path d="M56.4023 24.3694C56.4023 22.2474 56.9136 20.1949 57.9442 18.2125C58.9747 16.2219 60.4324 14.7117 62.3176 13.6665C64.2028 12.6208 66.3017 12.0944 68.6296 12.0944C72.2249 12.0944 75.1633 13.2792 77.4605 15.6489C79.7581 18.0267 80.9027 21.016 80.9027 24.6402C80.9027 28.2959 79.7429 31.324 77.4302 33.7244C75.1099 36.1253 72.1942 37.3255 68.6755 37.3255C66.5003 37.3255 64.4245 36.8225 62.4475 35.8234C60.4782 34.8243 58.9747 33.3606 57.9442 31.4243C56.9136 29.4961 56.4023 27.1418 56.4023 24.3694ZM62.8595 24.7101C62.8595 27.1029 63.4167 28.9385 64.531 30.2087C65.6532 31.4863 67.0268 32.1216 68.6679 32.1216C70.3014 32.1216 71.6749 31.4863 72.7816 30.2087C73.8887 28.9385 74.4459 27.0875 74.4459 24.6636C74.4459 22.3016 73.8887 20.4814 72.7816 19.2116C71.6749 17.9337 70.3014 17.2984 68.6679 17.2984C67.0268 17.2984 65.6532 17.9337 64.531 19.2116C63.4167 20.4814 62.8595 22.317 62.8595 24.7101Z" fill="#AB8E54"/>
<path d="M85.5703 36.7231V3.45288H91.8441V15.4568C93.7831 13.2186 96.0727 12.0957 98.7288 12.0957C101.621 12.0957 104.01 13.1567 105.903 15.2864C107.796 17.4162 108.743 20.4751 108.743 24.4634C108.743 28.5837 107.781 31.7587 105.85 33.9892C103.919 36.212 101.568 37.3273 98.8129 37.3273C97.4542 37.3273 96.1185 36.9708 94.7981 36.2662C93.4776 35.5536 92.3402 34.5314 91.3862 33.1839V36.7231H85.5703ZM91.7527 24.2004C91.7527 26.7016 92.142 28.5603 92.9204 29.7532C94.012 31.4568 95.4545 32.3086 97.2635 32.3086C98.6526 32.3086 99.8355 31.7045 100.82 30.4965C101.797 29.2882 102.285 27.3831 102.285 24.7888C102.285 22.0241 101.789 20.0336 100.805 18.8099C99.8203 17.5866 98.5609 16.9747 97.0191 16.9747C95.5079 16.9747 94.2561 17.5708 93.2562 18.7637C92.2564 19.9563 91.7527 21.7684 91.7527 24.2004Z" fill="#AB8E54"/>
<path d="M118.498 20.0399L112.819 19.0178C113.46 16.6634 114.567 14.9209 116.132 13.7903C117.696 12.6597 120.024 12.0944 123.108 12.0944C125.909 12.0944 128 12.4274 129.374 13.1012C130.74 13.7749 131.709 14.6267 132.267 15.6643C132.824 16.7023 133.106 18.5997 133.106 21.3721L133.015 28.807C133.015 30.9213 133.114 32.4854 133.312 33.4922C133.511 34.499 133.885 35.5757 134.434 36.7218H128.206C128.046 36.3034 127.84 35.6838 127.603 34.8631C127.504 34.4836 127.428 34.2359 127.382 34.1194C126.313 35.1885 125.168 35.9861 123.947 36.5203C122.726 37.0548 121.429 37.3255 120.047 37.3255C117.612 37.3255 115.689 36.6522 114.284 35.3046C112.88 33.9648 112.178 32.2608 112.178 30.201C112.178 28.8454 112.498 27.6298 113.14 26.5611C113.781 25.5 114.674 24.679 115.834 24.1137C116.986 23.5484 118.65 23.0527 120.826 22.6269C123.756 22.0693 125.794 21.5425 126.924 21.0625V20.4195C126.924 19.1804 126.626 18.2975 126.031 17.7633C125.428 17.2368 124.298 16.9734 122.642 16.9734C121.52 16.9734 120.65 17.198 120.024 17.6548C119.391 18.104 118.887 18.9016 118.498 20.0399ZM126.924 25.1978C126.123 25.4689 124.848 25.7942 123.1 26.1738C121.36 26.5534 120.215 26.9249 119.681 27.2814C118.864 27.8775 118.452 28.6208 118.452 29.5272C118.452 30.4256 118.78 31.1921 119.437 31.8427C120.093 32.4934 120.925 32.8184 121.94 32.8184C123.069 32.8184 124.153 32.4392 125.183 31.6878C125.939 31.1071 126.443 30.4098 126.68 29.5734C126.84 29.0315 126.924 27.9936 126.924 26.468V25.1978Z" fill="#AB8E54"/>
<path d="M145.576 3.44966V36.7199H139.302V3.44966H145.576Z" fill="#AB8E54"/>
<path fill-rule="evenodd" clip-rule="evenodd" d="M19.0407 31.5684C22.8129 33.0969 28.8 31.5009 31.5146 29.5639C34.5022 27.432 36.522 24.1372 36.5748 18.7232L18.7363 18.7027L18.7714 23.8059L30.3389 23.8078C29.7688 26.0324 27.4156 28.2135 26.0406 29.2023C23.864 30.7671 22.1836 31.2013 19.0407 31.5684Z" fill="#AB8E54"/>
<path fill-rule="evenodd" clip-rule="evenodd" d="M6.45312 5.7515C8.8117 4.84545 9.85305 4.08083 12.8125 3.72911C17.3985 3.18431 22.4345 4.72235 25.7662 7.60097C28.4736 9.94028 28.4176 10.8375 29.6753 12.2334L34.0732 9.71642C33.7132 8.72208 32.3462 7.01916 31.8258 6.44139C27.0549 1.14505 19.3686 -0.673636 12.6395 1.78182C9.61799 2.88424 8.48637 3.91522 6.45312 5.7515Z" fill="#AB8E54"/>
<path fill-rule="evenodd" clip-rule="evenodd" d="M6.1234 19.1921C4.84807 21.5124 5.86306 27.1875 6.84376 29.5019C7.9891 32.2047 10.0534 34.3593 12.6308 35.5416C17.1656 37.6216 22.7768 37.054 27.2202 34.6195C28.0814 34.1476 30.1497 32.9034 30.6851 32.009C29.3477 32.4055 28.35 33.0173 26.8053 33.4013C19.9109 35.1137 12.8792 32.4117 8.8528 26.694C7.36154 24.5764 6.42743 22.3957 6.1234 19.1921Z" fill="#AB8E54"/>
<path fill-rule="evenodd" clip-rule="evenodd" d="M5.67801 30.8438C5.32307 29.534 4.67637 28.4927 4.30302 26.8851C2.72365 20.0877 5.31007 12.3846 11.0234 8.60144C15.3589 5.73015 16.2421 6.65233 18.2743 5.82505C6.92048 3.62313 -1.13665 11.8582 1.44471 23.0671C1.93722 25.2041 3.78884 29.0954 5.28262 30.5309C5.62854 30.8632 5.15011 30.536 5.67801 30.8438Z" fill="#AB8E54"/>
<path d="M171.591 39.874C169.578 39.6794 167.71 39.0877 165.985 38.0992C164.259 37.1108 162.726 35.8544 161.384 34.3311C160.649 33.5206 160.019 32.6292 159.491 31.6565C158.964 30.6841 158.509 29.6792 158.125 28.642C157.423 26.6972 157.087 24.728 157.119 22.7341C157.151 20.7407 157.471 18.8363 158.078 17.0209C158.685 15.2059 159.555 13.5202 160.689 11.9642C161.824 10.4082 163.157 9.1035 164.691 8.05017C166.224 6.99647 167.925 6.24283 169.794 5.78889C171.663 5.33531 173.652 5.27046 175.76 5.59471C178.252 5.98343 180.504 6.97228 182.517 8.56052C184.53 10.1488 186.127 12.0612 187.309 14.298C187.373 14.3954 187.485 14.6222 187.645 14.9787C187.804 15.3355 187.916 15.5946 187.98 15.7569C187.98 15.8217 188.012 15.9188 188.076 16.0485C188.14 16.1782 188.172 16.2757 188.172 16.3402C188.012 16.405 187.836 16.5025 187.645 16.6322C187.453 16.7615 187.277 16.7941 187.118 16.7292C186.606 15.4975 186.023 14.3709 185.368 13.3498C184.713 12.3287 183.907 11.3483 182.949 10.4082C181.159 8.72283 179.091 7.59622 176.743 7.02907C174.395 6.46156 172.038 6.46962 169.675 7.05326C167.758 7.53944 165.993 8.43082 164.379 9.72743C162.766 11.024 161.48 12.5478 160.522 14.298C159.531 16.1134 158.884 17.9936 158.581 19.9383C158.277 21.8834 158.293 23.7798 158.629 25.6274C158.964 27.4751 159.579 29.2172 160.474 30.8545C161.368 32.4915 162.502 33.9094 163.876 35.1089C165.25 36.3084 166.831 37.2401 168.62 37.9047C170.409 38.5693 172.358 38.8367 174.466 38.707C175.904 38.6422 177.294 38.318 178.635 37.7347C179.977 37.151 181.215 36.3813 182.349 35.4251C183.483 34.4688 184.466 33.3748 185.297 32.1431C186.127 30.9109 186.766 29.6143 187.213 28.2529L188.268 28.642V28.7394C188.012 29.5172 187.7 30.2709 187.333 31.0003C186.966 31.7294 186.558 32.4347 186.111 33.1154C185.28 34.3146 184.322 35.3683 183.236 36.2758C182.15 37.1837 180.976 37.9208 179.714 38.4883C178.452 39.0555 177.134 39.4607 175.76 39.704C174.387 39.9469 172.997 40.0037 171.591 39.874Z" fill="#AB8E54"/>
<path d="M194.879 5.2038V38.6081H209.303V39.775H193.633V5.2038H194.879Z" fill="#AB8E54"/>
<path d="M223.118 40.3679C221.904 40.1733 220.746 39.7923 219.644 39.2251C218.541 38.658 217.535 37.9611 216.625 37.1342C215.714 36.3077 214.931 35.3676 214.277 34.3142C213.622 33.2605 213.135 32.1504 212.815 30.9835C212.783 30.9513 212.751 30.8538 212.719 30.6919C212.687 30.5296 212.655 30.3515 212.623 30.157C212.591 29.9624 212.559 29.7759 212.527 29.5979C212.496 29.4194 212.464 29.2978 212.432 29.233C212.432 29.1359 212.416 28.9981 212.384 28.8197C212.352 28.6416 212.336 28.52 212.336 28.4552V5.505H213.486V27.7744C213.486 28.8442 213.678 29.9463 214.061 31.081C214.444 32.2153 214.956 33.2202 215.594 34.0955C216.425 35.2624 217.391 36.2348 218.493 37.0126C219.596 37.7908 220.762 38.3744 221.992 38.7631C223.222 39.1522 224.484 39.3387 225.777 39.3222C227.071 39.3061 228.325 39.0874 229.539 38.666C230.753 38.2447 231.895 37.6124 232.965 36.7697C234.036 35.927 234.954 34.8733 235.721 33.6093C236.328 32.5717 236.775 31.5345 237.063 30.4973C237.127 30.2379 237.223 29.8653 237.35 29.3788C237.478 28.8926 237.542 28.6171 237.542 28.5522V5.505H238.692V27.969C238.692 28.6171 238.612 29.2656 238.452 29.9137C238.293 30.5622 238.117 31.1781 237.925 31.7613C237.382 33.3173 236.599 34.6868 235.577 35.8702C234.555 37.0533 233.381 38.0256 232.055 38.7877C230.729 39.5494 229.299 40.0678 227.766 40.3433C226.233 40.6192 224.683 40.6273 223.118 40.3679Z" fill="#AB8E54"/>
<path d="M252.683 5.2038C253.45 5.2038 254.24 5.29282 255.055 5.47124C255.87 5.6493 256.644 5.88452 257.379 6.17616C258.305 6.53264 259.176 6.96203 259.991 7.4647C260.805 7.967 261.532 8.60743 262.171 9.38524C262.65 9.96851 262.994 10.6089 263.201 11.3058C263.409 12.0026 263.513 12.716 263.513 13.4454C263.513 14.1749 263.433 14.912 263.273 15.6576C263.113 16.4032 262.922 17.1165 262.698 17.7972C262.698 17.8621 262.674 17.943 262.626 18.0401C262.578 18.1376 262.554 18.2186 262.554 18.2834C262.554 18.3157 262.546 18.3402 262.53 18.3563C262.514 18.3724 262.507 18.3966 262.507 18.4292L262.458 18.478H261.212V18.3805C261.692 17.0839 262.019 15.9089 262.195 14.8552C262.371 13.8019 262.331 12.8376 262.075 11.9623C261.819 11.0871 261.348 10.2931 260.661 9.57979C259.975 8.86646 259.008 8.21833 257.762 7.63469C256.836 7.18112 255.853 6.85688 254.815 6.66233C253.777 6.46779 252.747 6.3707 251.724 6.3707H245.734V39.8721H244.584V5.2038H252.683ZM266.915 36.9547C267.331 35.5932 267.626 34.183 267.802 32.7245C267.977 31.2659 267.929 29.8638 267.658 28.5185C267.386 27.1732 266.851 25.9498 266.053 24.8474C265.254 23.7453 264.104 22.8701 262.602 22.222C261.388 21.7032 260.11 21.387 258.769 21.2738C257.427 21.1602 256.101 21.136 254.791 21.2009V20.0336C256.484 19.9691 258.162 20.042 259.823 20.2527C261.484 20.4633 263.05 20.9902 264.519 21.8329C265.988 22.6755 267.067 23.7776 267.754 25.1394C268.44 26.5009 268.848 27.9675 268.976 29.5396C269.103 31.1117 269.016 32.7084 268.712 34.3289C268.409 35.9497 268.033 37.4408 267.586 38.8023C267.522 38.9968 267.442 39.1914 267.346 39.3859C267.283 39.5156 267.234 39.6453 267.203 39.775H265.957C265.988 39.6776 266.061 39.4911 266.172 39.2156C266.284 38.9401 266.388 38.6565 266.484 38.3648C266.579 38.0728 266.668 37.7893 266.747 37.5138C266.827 37.2382 266.883 37.0521 266.915 36.9547Z" fill="#AB8E54"/>
<path d="M171.591 39.874C169.578 39.6794 167.71 39.0877 165.985 38.0992C164.259 37.1108 162.726 35.8544 161.384 34.3311C160.649 33.5206 160.019 32.6292 159.491 31.6565C158.964 30.6841 158.509 29.6792 158.125 28.642C157.423 26.6972 157.087 24.728 157.119 22.7341C157.151 20.7407 157.471 18.8363 158.078 17.0209C158.685 15.2059 159.555 13.5202 160.689 11.9642C161.824 10.4082 163.157 9.1035 164.691 8.05017C166.224 6.99647 167.925 6.24283 169.794 5.78889C171.663 5.33531 173.652 5.27046 175.76 5.59471C178.252 5.98343 180.504 6.97228 182.517 8.56052C184.53 10.1488 186.127 12.0612 187.309 14.298C187.373 14.3954 187.485 14.6222 187.645 14.9787C187.804 15.3355 187.916 15.5946 187.98 15.7569C187.98 15.8217 188.012 15.9188 188.076 16.0485C188.14 16.1782 188.172 16.2757 188.172 16.3402C188.012 16.405 187.836 16.5025 187.645 16.6322C187.453 16.7615 187.277 16.7941 187.118 16.7292C186.606 15.4975 186.023 14.3709 185.368 13.3498C184.713 12.3287 183.907 11.3483 182.949 10.4082C181.159 8.72283 179.091 7.59622 176.743 7.02907C174.395 6.46156 172.038 6.46962 169.675 7.05326C167.758 7.53944 165.993 8.43082 164.379 9.72743C162.766 11.024 161.48 12.5478 160.522 14.298C159.531 16.1134 158.884 17.9936 158.581 19.9383C158.277 21.8834 158.293 23.7798 158.629 25.6274C158.964 27.4751 159.579 29.2172 160.474 30.8545C161.368 32.4915 162.502 33.9094 163.876 35.1089C165.25 36.3084 166.831 37.2401 168.62 37.9047C170.409 38.5693 172.358 38.8367 174.466 38.707C175.904 38.6422 177.294 38.318 178.635 37.7347C179.977 37.151 181.215 36.3813 182.349 35.4251C183.483 34.4688 184.466 33.3748 185.297 32.1431C186.127 30.9109 186.766 29.6143 187.213 28.2529L188.268 28.642V28.7394C188.012 29.5172 187.7 30.2709 187.333 31.0003C186.966 31.7294 186.558 32.4347 186.111 33.1154C185.28 34.3146 184.322 35.3683 183.236 36.2758C182.15 37.1837 180.976 37.9208 179.714 38.4883C178.452 39.0555 177.134 39.4607 175.76 39.704C174.387 39.9469 172.997 40.0037 171.591 39.874Z" stroke="#AB8E54" stroke-width="0.000261308" stroke-miterlimit="22.9256"/>
<path d="M194.879 5.2038V38.6081H209.303V39.775H193.633V5.2038H194.879Z" stroke="#AB8E54" stroke-width="0.000261308" stroke-miterlimit="22.9256"/>
<path d="M223.118 40.3679C221.904 40.1733 220.746 39.7923 219.644 39.2251C218.541 38.658 217.535 37.9611 216.625 37.1342C215.714 36.3077 214.931 35.3676 214.277 34.3142C213.622 33.2605 213.135 32.1504 212.815 30.9835C212.783 30.9513 212.751 30.8538 212.719 30.6919C212.687 30.5296 212.655 30.3515 212.623 30.157C212.591 29.9624 212.559 29.7759 212.527 29.5979C212.496 29.4194 212.464 29.2978 212.432 29.233C212.432 29.1359 212.416 28.9981 212.384 28.8197C212.352 28.6416 212.336 28.52 212.336 28.4552V5.505H213.486V27.7744C213.486 28.8442 213.678 29.9463 214.061 31.081C214.444 32.2153 214.956 33.2202 215.594 34.0955C216.425 35.2624 217.391 36.2348 218.493 37.0126C219.596 37.7908 220.762 38.3744 221.992 38.7631C223.222 39.1522 224.484 39.3387 225.777 39.3222C227.071 39.3061 228.325 39.0874 229.539 38.666C230.753 38.2447 231.895 37.6124 232.965 36.7697C234.036 35.927 234.954 34.8733 235.721 33.6093C236.328 32.5717 236.775 31.5345 237.063 30.4973C237.127 30.2379 237.223 29.8653 237.35 29.3788C237.478 28.8926 237.542 28.6171 237.542 28.5522V5.505H238.692V27.969C238.692 28.6171 238.612 29.2656 238.452 29.9137C238.293 30.5622 238.117 31.1781 237.925 31.7613C237.382 33.3173 236.599 34.6868 235.577 35.8702C234.555 37.0533 233.381 38.0256 232.055 38.7877C230.729 39.5494 229.299 40.0678 227.766 40.3433C226.233 40.6192 224.683 40.6273 223.118 40.3679Z" stroke="#AB8E54" stroke-width="0.000261308" stroke-miterlimit="22.9256"/>
<path d="M252.683 5.2038C253.45 5.2038 254.24 5.29282 255.055 5.47124C255.87 5.6493 256.644 5.88452 257.379 6.17616C258.305 6.53264 259.176 6.96203 259.991 7.4647C260.805 7.967 261.532 8.60743 262.171 9.38524C262.65 9.96851 262.994 10.6089 263.201 11.3058C263.409 12.0026 263.513 12.716 263.513 13.4454C263.513 14.1749 263.433 14.912 263.273 15.6576C263.113 16.4032 262.922 17.1165 262.698 17.7972C262.698 17.8621 262.674 17.943 262.626 18.0401C262.578 18.1376 262.554 18.2186 262.554 18.2834C262.554 18.3157 262.546 18.3402 262.53 18.3563C262.514 18.3724 262.507 18.3966 262.507 18.4292L262.458 18.478H261.212V18.3805C261.692 17.0839 262.019 15.9089 262.195 14.8552C262.371 13.8019 262.331 12.8376 262.075 11.9623C261.819 11.0871 261.348 10.2931 260.661 9.57979C259.975 8.86646 259.008 8.21833 257.762 7.63469C256.836 7.18112 255.853 6.85688 254.815 6.66233C253.777 6.46779 252.747 6.3707 251.724 6.3707H245.734V39.8721H244.584V5.2038H252.683ZM266.915 36.9547C267.331 35.5932 267.626 34.183 267.802 32.7245C267.977 31.2659 267.929 29.8638 267.658 28.5185C267.386 27.1732 266.851 25.9498 266.053 24.8474C265.254 23.7453 264.104 22.8701 262.602 22.222C261.388 21.7032 260.11 21.387 258.769 21.2738C257.427 21.1602 256.101 21.136 254.791 21.2009V20.0336C256.484 19.9691 258.162 20.042 259.823 20.2527C261.484 20.4633 263.05 20.9902 264.519 21.8329C265.988 22.6755 267.067 23.7776 267.754 25.1394C268.44 26.5009 268.848 27.9675 268.976 29.5396C269.103 31.1117 269.016 32.7084 268.712 34.3289C268.409 35.9497 268.033 37.4408 267.586 38.8023C267.522 38.9968 267.442 39.1914 267.346 39.3859C267.283 39.5156 267.234 39.6453 267.203 39.775H265.957C265.988 39.6776 266.061 39.4911 266.172 39.2156C266.284 38.9401 266.388 38.6565 266.484 38.3648C266.579 38.0728 266.668 37.7893 266.747 37.5138C266.827 37.2382 266.883 37.0521 266.915 36.9547Z" stroke="#AB8E54" stroke-width="0.000261308" stroke-miterlimit="22.9256"/>
</svg>
